<mxfile host="Electron" agent="Mozilla/5.0 (Windows NT 10.0; Win64; x64) AppleWebKit/537.36 (KHTML, like Gecko) draw.io/24.7.17 Chrome/128.0.6613.36 Electron/32.0.1 Safari/537.36" version="24.7.17">
  <diagram id="C5RBs43oDa-KdzZeNtuy" name="Page-1">
    <mxGraphModel dx="1782" dy="608" grid="1" gridSize="10" guides="1" tooltips="1" connect="1" arrows="1" fold="1" page="1" pageScale="1" pageWidth="827" pageHeight="1169" math="0" shadow="0">
      <root>
        <mxCell id="WIyWlLk6GJQsqaUBKTNV-0" />
        <mxCell id="WIyWlLk6GJQsqaUBKTNV-1" parent="WIyWlLk6GJQsqaUBKTNV-0" />
        <mxCell id="zlIWeSrJpwicM_CMeOjV-9" style="edgeStyle=orthogonalEdgeStyle;rounded=0;orthogonalLoop=1;jettySize=auto;html=1;exitX=0.5;exitY=1;exitDx=0;exitDy=0;exitPerimeter=0;" edge="1" parent="WIyWlLk6GJQsqaUBKTNV-1" source="zlIWeSrJpwicM_CMeOjV-6" target="zlIWeSrJpwicM_CMeOjV-8">
          <mxGeometry relative="1" as="geometry" />
        </mxCell>
        <mxCell id="zlIWeSrJpwicM_CMeOjV-6" value="Start" style="strokeWidth=2;html=1;shape=mxgraph.flowchart.start_1;whiteSpace=wrap;" vertex="1" parent="WIyWlLk6GJQsqaUBKTNV-1">
          <mxGeometry x="532" y="10" width="100" height="60" as="geometry" />
        </mxCell>
        <mxCell id="zlIWeSrJpwicM_CMeOjV-14" value="" style="edgeStyle=orthogonalEdgeStyle;rounded=0;orthogonalLoop=1;jettySize=auto;html=1;" edge="1" parent="WIyWlLk6GJQsqaUBKTNV-1" source="zlIWeSrJpwicM_CMeOjV-8" target="zlIWeSrJpwicM_CMeOjV-13">
          <mxGeometry relative="1" as="geometry" />
        </mxCell>
        <mxCell id="zlIWeSrJpwicM_CMeOjV-8" value="Input selected question" style="shape=parallelogram;html=1;strokeWidth=2;perimeter=parallelogramPerimeter;whiteSpace=wrap;rounded=1;arcSize=12;size=0.23;" vertex="1" parent="WIyWlLk6GJQsqaUBKTNV-1">
          <mxGeometry x="483.5" y="80" width="196" height="60" as="geometry" />
        </mxCell>
        <mxCell id="zlIWeSrJpwicM_CMeOjV-16" value="" style="edgeStyle=orthogonalEdgeStyle;rounded=0;orthogonalLoop=1;jettySize=auto;html=1;" edge="1" parent="WIyWlLk6GJQsqaUBKTNV-1" source="zlIWeSrJpwicM_CMeOjV-13" target="zlIWeSrJpwicM_CMeOjV-15">
          <mxGeometry relative="1" as="geometry" />
        </mxCell>
        <mxCell id="zlIWeSrJpwicM_CMeOjV-13" value="input contestant1 answer" style="shape=parallelogram;perimeter=parallelogramPerimeter;whiteSpace=wrap;html=1;fixedSize=1;strokeWidth=2;rounded=1;arcSize=12;" vertex="1" parent="WIyWlLk6GJQsqaUBKTNV-1">
          <mxGeometry x="493.5" y="160" width="176" height="60" as="geometry" />
        </mxCell>
        <mxCell id="zlIWeSrJpwicM_CMeOjV-18" value="no" style="edgeStyle=orthogonalEdgeStyle;rounded=0;orthogonalLoop=1;jettySize=auto;html=1;" edge="1" parent="WIyWlLk6GJQsqaUBKTNV-1" source="zlIWeSrJpwicM_CMeOjV-15" target="zlIWeSrJpwicM_CMeOjV-17">
          <mxGeometry relative="1" as="geometry" />
        </mxCell>
        <mxCell id="zlIWeSrJpwicM_CMeOjV-20" value="yes" style="edgeStyle=orthogonalEdgeStyle;rounded=0;orthogonalLoop=1;jettySize=auto;html=1;" edge="1" parent="WIyWlLk6GJQsqaUBKTNV-1" source="zlIWeSrJpwicM_CMeOjV-15" target="zlIWeSrJpwicM_CMeOjV-19">
          <mxGeometry relative="1" as="geometry" />
        </mxCell>
        <mxCell id="zlIWeSrJpwicM_CMeOjV-15" value="is contestant1 answer correct?" style="rhombus;whiteSpace=wrap;html=1;strokeWidth=2;rounded=1;arcSize=12;" vertex="1" parent="WIyWlLk6GJQsqaUBKTNV-1">
          <mxGeometry x="467" y="240" width="229" height="80" as="geometry" />
        </mxCell>
        <mxCell id="zlIWeSrJpwicM_CMeOjV-22" value="" style="edgeStyle=orthogonalEdgeStyle;rounded=0;orthogonalLoop=1;jettySize=auto;html=1;" edge="1" parent="WIyWlLk6GJQsqaUBKTNV-1" source="zlIWeSrJpwicM_CMeOjV-17" target="zlIWeSrJpwicM_CMeOjV-21">
          <mxGeometry relative="1" as="geometry" />
        </mxCell>
        <mxCell id="zlIWeSrJpwicM_CMeOjV-17" value="subtract prize from contestant1 score" style="whiteSpace=wrap;html=1;strokeWidth=2;rounded=1;arcSize=12;" vertex="1" parent="WIyWlLk6GJQsqaUBKTNV-1">
          <mxGeometry x="338" y="330" width="120" height="60" as="geometry" />
        </mxCell>
        <mxCell id="zlIWeSrJpwicM_CMeOjV-25" style="edgeStyle=orthogonalEdgeStyle;rounded=0;orthogonalLoop=1;jettySize=auto;html=1;exitX=0.5;exitY=1;exitDx=0;exitDy=0;entryX=0.5;entryY=0;entryDx=0;entryDy=0;" edge="1" parent="WIyWlLk6GJQsqaUBKTNV-1" source="zlIWeSrJpwicM_CMeOjV-19" target="zlIWeSrJpwicM_CMeOjV-42">
          <mxGeometry relative="1" as="geometry">
            <mxPoint x="759" y="480" as="targetPoint" />
          </mxGeometry>
        </mxCell>
        <mxCell id="zlIWeSrJpwicM_CMeOjV-19" value="award contestant1 prize" style="whiteSpace=wrap;html=1;strokeWidth=2;rounded=1;arcSize=12;" vertex="1" parent="WIyWlLk6GJQsqaUBKTNV-1">
          <mxGeometry x="699" y="330" width="120" height="60" as="geometry" />
        </mxCell>
        <mxCell id="zlIWeSrJpwicM_CMeOjV-24" value="" style="edgeStyle=orthogonalEdgeStyle;rounded=0;orthogonalLoop=1;jettySize=auto;html=1;" edge="1" parent="WIyWlLk6GJQsqaUBKTNV-1" source="zlIWeSrJpwicM_CMeOjV-21" target="zlIWeSrJpwicM_CMeOjV-23">
          <mxGeometry relative="1" as="geometry" />
        </mxCell>
        <mxCell id="zlIWeSrJpwicM_CMeOjV-21" value="input contestant2 answer" style="shape=parallelogram;perimeter=parallelogramPerimeter;whiteSpace=wrap;html=1;fixedSize=1;strokeWidth=2;rounded=1;arcSize=12;" vertex="1" parent="WIyWlLk6GJQsqaUBKTNV-1">
          <mxGeometry x="309.75" y="410" width="176.5" height="60" as="geometry" />
        </mxCell>
        <mxCell id="zlIWeSrJpwicM_CMeOjV-27" value="no" style="edgeStyle=orthogonalEdgeStyle;rounded=0;orthogonalLoop=1;jettySize=auto;html=1;" edge="1" parent="WIyWlLk6GJQsqaUBKTNV-1" source="zlIWeSrJpwicM_CMeOjV-23" target="zlIWeSrJpwicM_CMeOjV-26">
          <mxGeometry relative="1" as="geometry" />
        </mxCell>
        <mxCell id="zlIWeSrJpwicM_CMeOjV-31" value="yes" style="edgeStyle=orthogonalEdgeStyle;rounded=0;orthogonalLoop=1;jettySize=auto;html=1;" edge="1" parent="WIyWlLk6GJQsqaUBKTNV-1" source="zlIWeSrJpwicM_CMeOjV-23" target="zlIWeSrJpwicM_CMeOjV-30">
          <mxGeometry relative="1" as="geometry" />
        </mxCell>
        <mxCell id="zlIWeSrJpwicM_CMeOjV-23" value="is contestant2 answer correct?" style="rhombus;whiteSpace=wrap;html=1;strokeWidth=2;rounded=1;arcSize=12;" vertex="1" parent="WIyWlLk6GJQsqaUBKTNV-1">
          <mxGeometry x="287.5" y="490" width="221" height="80" as="geometry" />
        </mxCell>
        <mxCell id="zlIWeSrJpwicM_CMeOjV-33" value="" style="edgeStyle=orthogonalEdgeStyle;rounded=0;orthogonalLoop=1;jettySize=auto;html=1;" edge="1" parent="WIyWlLk6GJQsqaUBKTNV-1" source="zlIWeSrJpwicM_CMeOjV-26" target="zlIWeSrJpwicM_CMeOjV-32">
          <mxGeometry relative="1" as="geometry" />
        </mxCell>
        <mxCell id="zlIWeSrJpwicM_CMeOjV-26" value="&lt;br&gt;&lt;span style=&quot;color: rgb(240, 240, 240); font-family: Helvetica; font-size: 12px; font-style: normal; font-variant-ligatures: normal; font-variant-caps: normal; font-weight: 400; letter-spacing: normal; orphans: 2; text-align: center; text-indent: 0px; text-transform: none; widows: 2; word-spacing: 0px; -webkit-text-stroke-width: 0px; white-space: normal; background-color: rgb(27, 29, 30); text-decoration-thickness: initial; text-decoration-style: initial; text-decoration-color: initial; display: inline !important; float: none;&quot;&gt;subtract prize from contestant2 score&lt;/span&gt;&lt;div&gt;&lt;br/&gt;&lt;/div&gt;" style="whiteSpace=wrap;html=1;strokeWidth=2;rounded=1;arcSize=12;" vertex="1" parent="WIyWlLk6GJQsqaUBKTNV-1">
          <mxGeometry x="159" y="580" width="120" height="60" as="geometry" />
        </mxCell>
        <mxCell id="zlIWeSrJpwicM_CMeOjV-46" style="edgeStyle=orthogonalEdgeStyle;rounded=0;orthogonalLoop=1;jettySize=auto;html=1;exitX=0.5;exitY=1;exitDx=0;exitDy=0;entryX=0.5;entryY=0;entryDx=0;entryDy=0;" edge="1" parent="WIyWlLk6GJQsqaUBKTNV-1" source="zlIWeSrJpwicM_CMeOjV-30" target="zlIWeSrJpwicM_CMeOjV-42">
          <mxGeometry relative="1" as="geometry" />
        </mxCell>
        <mxCell id="zlIWeSrJpwicM_CMeOjV-30" value="award contestant2 prize" style="whiteSpace=wrap;html=1;strokeWidth=2;rounded=1;arcSize=12;" vertex="1" parent="WIyWlLk6GJQsqaUBKTNV-1">
          <mxGeometry x="512" y="580" width="120" height="60" as="geometry" />
        </mxCell>
        <mxCell id="zlIWeSrJpwicM_CMeOjV-35" value="" style="edgeStyle=orthogonalEdgeStyle;rounded=0;orthogonalLoop=1;jettySize=auto;html=1;" edge="1" parent="WIyWlLk6GJQsqaUBKTNV-1" source="zlIWeSrJpwicM_CMeOjV-32" target="zlIWeSrJpwicM_CMeOjV-34">
          <mxGeometry relative="1" as="geometry" />
        </mxCell>
        <mxCell id="zlIWeSrJpwicM_CMeOjV-32" value="input contestant3 answer" style="shape=parallelogram;perimeter=parallelogramPerimeter;whiteSpace=wrap;html=1;fixedSize=1;strokeWidth=2;rounded=1;arcSize=12;" vertex="1" parent="WIyWlLk6GJQsqaUBKTNV-1">
          <mxGeometry x="129" y="660" width="180" height="60" as="geometry" />
        </mxCell>
        <mxCell id="zlIWeSrJpwicM_CMeOjV-37" value="no" style="edgeStyle=orthogonalEdgeStyle;rounded=0;orthogonalLoop=1;jettySize=auto;html=1;" edge="1" parent="WIyWlLk6GJQsqaUBKTNV-1" source="zlIWeSrJpwicM_CMeOjV-34" target="zlIWeSrJpwicM_CMeOjV-36">
          <mxGeometry relative="1" as="geometry" />
        </mxCell>
        <mxCell id="zlIWeSrJpwicM_CMeOjV-39" value="yes" style="edgeStyle=orthogonalEdgeStyle;rounded=0;orthogonalLoop=1;jettySize=auto;html=1;" edge="1" parent="WIyWlLk6GJQsqaUBKTNV-1" source="zlIWeSrJpwicM_CMeOjV-34" target="zlIWeSrJpwicM_CMeOjV-38">
          <mxGeometry relative="1" as="geometry" />
        </mxCell>
        <mxCell id="zlIWeSrJpwicM_CMeOjV-34" value="is contestant3 answer correct?" style="rhombus;whiteSpace=wrap;html=1;strokeWidth=2;rounded=1;arcSize=12;" vertex="1" parent="WIyWlLk6GJQsqaUBKTNV-1">
          <mxGeometry x="114" y="740" width="210" height="80" as="geometry" />
        </mxCell>
        <mxCell id="zlIWeSrJpwicM_CMeOjV-41" value="" style="edgeStyle=orthogonalEdgeStyle;rounded=0;orthogonalLoop=1;jettySize=auto;html=1;" edge="1" parent="WIyWlLk6GJQsqaUBKTNV-1" source="zlIWeSrJpwicM_CMeOjV-36" target="zlIWeSrJpwicM_CMeOjV-40">
          <mxGeometry relative="1" as="geometry" />
        </mxCell>
        <mxCell id="zlIWeSrJpwicM_CMeOjV-36" value="subtract prize from contestant3 score" style="whiteSpace=wrap;html=1;strokeWidth=2;rounded=1;arcSize=12;" vertex="1" parent="WIyWlLk6GJQsqaUBKTNV-1">
          <mxGeometry x="-10" y="830" width="120" height="60" as="geometry" />
        </mxCell>
        <mxCell id="zlIWeSrJpwicM_CMeOjV-44" style="edgeStyle=orthogonalEdgeStyle;rounded=0;orthogonalLoop=1;jettySize=auto;html=1;exitX=0.5;exitY=1;exitDx=0;exitDy=0;" edge="1" parent="WIyWlLk6GJQsqaUBKTNV-1" source="zlIWeSrJpwicM_CMeOjV-38" target="zlIWeSrJpwicM_CMeOjV-42">
          <mxGeometry relative="1" as="geometry" />
        </mxCell>
        <mxCell id="zlIWeSrJpwicM_CMeOjV-38" value="award contestant3 prize" style="whiteSpace=wrap;html=1;strokeWidth=2;rounded=1;arcSize=12;" vertex="1" parent="WIyWlLk6GJQsqaUBKTNV-1">
          <mxGeometry x="338" y="830" width="120" height="60" as="geometry" />
        </mxCell>
        <mxCell id="zlIWeSrJpwicM_CMeOjV-43" value="" style="edgeStyle=orthogonalEdgeStyle;rounded=0;orthogonalLoop=1;jettySize=auto;html=1;" edge="1" parent="WIyWlLk6GJQsqaUBKTNV-1" source="zlIWeSrJpwicM_CMeOjV-40" target="zlIWeSrJpwicM_CMeOjV-42">
          <mxGeometry relative="1" as="geometry" />
        </mxCell>
        <mxCell id="zlIWeSrJpwicM_CMeOjV-40" value="output correct answer" style="shape=parallelogram;perimeter=parallelogramPerimeter;whiteSpace=wrap;html=1;fixedSize=1;strokeWidth=2;rounded=1;arcSize=12;" vertex="1" parent="WIyWlLk6GJQsqaUBKTNV-1">
          <mxGeometry x="-25" y="910" width="150" height="60" as="geometry" />
        </mxCell>
        <mxCell id="zlIWeSrJpwicM_CMeOjV-48" style="edgeStyle=orthogonalEdgeStyle;rounded=0;orthogonalLoop=1;jettySize=auto;html=1;exitX=0.5;exitY=1;exitDx=0;exitDy=0;" edge="1" parent="WIyWlLk6GJQsqaUBKTNV-1" source="zlIWeSrJpwicM_CMeOjV-42" target="zlIWeSrJpwicM_CMeOjV-47">
          <mxGeometry relative="1" as="geometry" />
        </mxCell>
        <mxCell id="zlIWeSrJpwicM_CMeOjV-42" value="input selected question" style="shape=parallelogram;perimeter=parallelogramPerimeter;whiteSpace=wrap;html=1;fixedSize=1;strokeWidth=2;rounded=1;arcSize=12;" vertex="1" parent="WIyWlLk6GJQsqaUBKTNV-1">
          <mxGeometry x="487.5" y="990" width="168" height="60" as="geometry" />
        </mxCell>
        <mxCell id="zlIWeSrJpwicM_CMeOjV-50" style="edgeStyle=orthogonalEdgeStyle;rounded=0;orthogonalLoop=1;jettySize=auto;html=1;exitX=0;exitY=0.5;exitDx=0;exitDy=0;entryX=0.5;entryY=0;entryDx=0;entryDy=0;" edge="1" parent="WIyWlLk6GJQsqaUBKTNV-1" source="zlIWeSrJpwicM_CMeOjV-47" target="zlIWeSrJpwicM_CMeOjV-15">
          <mxGeometry relative="1" as="geometry">
            <Array as="points">
              <mxPoint x="-50" y="1100" />
              <mxPoint x="-50" y="230" />
              <mxPoint x="582" y="230" />
            </Array>
          </mxGeometry>
        </mxCell>
        <mxCell id="zlIWeSrJpwicM_CMeOjV-47" value="input contestant1 answer" style="shape=parallelogram;perimeter=parallelogramPerimeter;whiteSpace=wrap;html=1;fixedSize=1;strokeWidth=2;rounded=1;arcSize=12;" vertex="1" parent="WIyWlLk6GJQsqaUBKTNV-1">
          <mxGeometry x="483.5" y="1070" width="176" height="60" as="geometry" />
        </mxCell>
      </root>
    </mxGraphModel>
  </diagram>
</mxfile>
